<?xml version="1.0" standalone="no"?>
<!DOCTYPE svg PUBLIC "-//W3C//DTD SVG 20010904//EN"
 "http://www.w3.org/TR/2001/REC-SVG-20010904/DTD/svg10.dtd">
<svg version="1.0" xmlns="http://www.w3.org/2000/svg"
 width="450.000000pt" height="450.000000pt" viewBox="0 0 450.000000 450.000000"
 preserveAspectRatio="xMidYMid meet">
<metadata>
Created by potrace 1.11, written by Peter Selinger 2001-2013
</metadata>
<g transform="translate(0.000000,450.000000) scale(0.100000,-0.100000)"
fill="#000000" stroke="none">
<path d="M407 4418 c-48 -85 -163 -365 -174 -421 -5 -31 -5 -31 12 -12 15 18
16 19 11 1 -6 -17 -2 -18 49 -14 31 3 61 10 68 17 9 9 5 10 -18 7 -17 -2 -24
-1 -16 1 12 4 12 6 0 15 -10 7 -8 9 8 5 12 -3 22 -2 21 2 -1 3 2 13 6 22 4 8
-1 29 -10 45 -15 27 -15 27 -10 4 3 -14 1 -31 -3 -38 -5 -9 -11 1 -15 29 -4
23 -3 45 2 48 5 3 11 13 14 21 2 8 13 -12 23 -45 10 -33 23 -66 29 -74 8 -11
8 -13 -1 -7 -8 4 -13 1 -13 -9 0 -11 6 -15 19 -10 13 4 25 -5 45 -35 31 -47
32 -55 9 -45 -10 3 -42 13 -72 21 -54 14 -56 13 -120 -17 -36 -17 -68 -33 -70
-35 -2 -2 -9 -32 -15 -66 -8 -46 -16 -62 -26 -61 -16 3 -60 -120 -85 -237 -13
-61 -13 -67 5 -90 45 -58 84 -136 82 -162 -2 -24 2 -29 28 -35 28 -5 30 -9 25
-34 -8 -36 2 -69 21 -69 12 0 12 -4 4 -21 -7 -11 -8 -28 -5 -37 4 -9 9 -60 12
-112 3 -52 9 -99 13 -104 5 -5 3 -24 -5 -44 -8 -19 -15 -46 -15 -61 0 -14 -7
-48 -15 -75 -19 -63 -19 -104 1 -151 11 -27 12 -40 4 -45 -7 -4 -8 -18 -4 -35
6 -24 2 -32 -22 -51 l-28 -23 28 -59 28 -58 -37 -59 c-42 -66 -43 -62 26 -145
l37 -45 4 -123 c2 -71 9 -127 15 -133 8 -8 21 -4 48 17 33 25 39 26 49 13 6
-9 14 -16 18 -15 3 1 10 -3 15 -8 5 -5 3 -6 -4 -2 -20 11 -15 -4 13 -41 23
-30 24 -34 8 -40 -10 -4 -19 -2 -22 5 -5 17 -29 15 -36 -4 -3 -9 -6 -51 -6
-95 0 -78 0 -80 -21 -68 -16 8 -66 9 -175 4 l-154 -7 0 -759 0 -759 321 0
c307 0 409 8 409 31 0 5 -11 14 -25 21 -25 11 -26 31 0 22 27 -11 225 28 225
44 0 4 -28 22 -63 39 l-62 32 69 0 c65 1 211 33 230 51 4 4 -1 33 -12 63 -41
108 -37 226 9 306 11 18 19 35 17 36 -2 1 -18 10 -36 19 -18 9 -45 35 -60 56
l-27 39 -72 1 c-81 0 -75 -6 -87 88 -7 47 -4 48 47 27 20 -8 52 -15 71 -15 28
0 36 5 44 28 12 34 60 92 76 92 7 0 23 -12 37 -26 l24 -26 -26 -21 c-14 -12
-35 -27 -45 -33 -17 -10 -15 -13 21 -23 22 -6 82 -16 133 -23 92 -11 112 -21
70 -34 -50 -15 -57 -29 -42 -92 8 -31 14 -77 14 -102 0 -26 4 -50 9 -55 16
-16 41 -125 41 -175 0 -55 -24 -131 -56 -180 l-24 -34 23 -24 c30 -32 61 -47
132 -63 58 -13 59 -14 25 -19 l-35 -5 30 -20 c28 -19 50 -20 847 -23 727 -2
817 -1 812 13 -7 18 7 20 25 2 32 -31 80 102 66 183 -4 22 -15 50 -26 62 l-18
23 -1 -37 c0 -20 -5 -40 -12 -44 -8 -5 -10 8 -5 49 4 46 2 61 -14 81 -15 20
-16 25 -5 29 8 3 17 1 19 -6 2 -7 8 -9 12 -4 12 10 -25 36 -52 37 -24 0 -31
-14 -11 -26 7 -5 5 -11 -8 -21 -16 -12 -20 -11 -34 7 -15 19 -16 19 -109 -26
-92 -45 -93 -46 -87 -76 3 -17 6 -34 6 -39 0 -4 15 -11 34 -15 19 -3 42 -15
52 -25 17 -18 16 -19 -20 -19 -29 0 -39 -5 -48 -25 -10 -23 -8 -29 15 -53 32
-31 56 -23 72 24 12 39 15 41 25 24 25 -40 -9 -100 -57 -100 -36 0 -95 36
-115 70 -14 25 -23 30 -56 30 -21 0 -42 3 -45 7 -9 9 64 34 83 28 19 -5 64 31
55 45 -9 14 -32 13 -39 -2 -5 -10 -7 -10 -12 0 -3 7 -12 18 -19 25 -6 6 -10
19 -8 28 5 19 -17 30 -46 22 -27 -7 -27 -20 -1 -28 31 -10 24 -28 -7 -20 -38
9 -46 26 -23 49 19 19 18 20 -23 40 -60 30 -57 36 36 75 27 12 46 25 42 31
-12 20 -81 11 -121 -16 -23 -16 -40 -22 -42 -15 -2 6 -7 9 -11 7 -10 -6 -1 77
10 89 16 17 9 25 -16 19 -30 -7 -30 -8 -5 41 11 22 20 50 20 62 0 16 8 27 25
33 36 14 33 52 -7 85 -27 23 -39 26 -76 22 -55 -6 -63 -14 -34 -37 23 -19 29
-40 13 -40 -19 0 -67 51 -53 57 6 2 9 9 6 14 -3 6 -12 2 -20 -8 -9 -12 -13
-14 -14 -4 0 8 -6 11 -17 6 -14 -5 -15 -4 -6 6 10 10 9 15 -5 26 -9 8 -11 12
-4 8 16 -8 16 7 0 24 -8 8 -8 11 -2 8 15 -8 35 15 37 42 0 11 13 25 27 32 l25
13 -23 4 c-13 2 -29 -1 -36 -7 -31 -26 -26 37 5 65 18 16 19 16 19 0 0 -9 6
-16 13 -15 25 3 38 -1 32 -11 -10 -16 21 -23 44 -10 25 13 28 30 5 30 -12 0
-14 7 -9 30 9 40 -16 50 -55 22 l-28 -21 -6 31 c-3 17 -6 45 -7 62 0 26 -2 28
-8 11 -5 -11 -7 -23 -4 -27 2 -4 -4 -5 -13 -1 -11 4 -13 8 -6 11 7 2 12 14 12
26 0 12 9 40 19 62 22 45 19 59 -12 43 -43 -23 -68 -47 -55 -53 7 -3 -3 -4
-22 -3 -30 2 -35 6 -38 28 -2 20 2 28 17 32 12 3 21 11 21 17 0 9 -4 9 -13 3
-6 -6 -21 -9 -32 -7 -11 2 -35 -1 -53 -6 -30 -8 -32 -7 -27 11 5 15 1 19 -20
19 -22 0 -26 3 -20 18 4 9 10 39 13 65 4 40 11 53 41 77 39 33 34 36 -34 18
-43 -12 -45 -14 -45 -50 0 -44 -17 -52 -22 -10 l-3 27 -82 -3 c-81 -3 -108 7
-84 31 18 18 13 27 -14 27 -15 0 -31 -9 -41 -25 -18 -28 -64 -34 -83 -11 -25
30 -8 120 24 132 16 6 45 54 45 74 0 5 -8 10 -18 10 -18 0 -42 -37 -42 -64 0
-10 -59 -46 -76 -46 -3 0 12 20 33 44 38 43 68 110 57 128 -3 5 2 15 11 22 12
8 16 24 13 56 l-3 45 -22 -42 c-13 -24 -20 -49 -16 -59 5 -14 2 -16 -18 -10
-13 4 -52 10 -86 13 -35 3 -63 9 -63 13 0 4 11 15 25 24 43 28 32 45 -32 48
l-58 3 -3 43 c-2 25 1 42 7 42 15 0 14 27 -1 33 -7 2 -24 0 -37 -5 -32 -12
-37 -4 -13 20 11 11 18 23 14 26 -3 3 1 6 9 6 13 0 89 69 89 81 0 7 -63 37
-94 44 -26 6 -27 7 -12 24 9 10 16 25 16 33 0 21 -32 13 -56 -13 -21 -23 -42
-26 -23 -3 10 13 10 17 -2 25 -8 5 -18 9 -23 9 -5 0 0 10 12 23 26 27 28 37 7
37 -8 0 -15 2 -15 5 0 11 33 70 48 88 14 16 14 19 2 28 -12 7 -63 4 -65 -4 -1
-1 -16 -19 -34 -41 -26 -30 -31 -44 -26 -65 4 -14 11 -29 17 -32 12 -8 -64
-54 -102 -62 -15 -4 -39 -25 -58 -52 -18 -25 -46 -54 -62 -63 -34 -19 -36 -29
-14 -60 20 -29 10 -43 -26 -35 -19 3 -30 1 -30 -6 0 -6 -9 -11 -20 -11 -14 0
-20 -7 -20 -23 0 -37 -26 -64 -74 -76 -98 -24 -172 -10 -258 50 -14 11 -34 19
-43 19 -9 0 -35 20 -58 45 -22 25 -56 53 -74 62 -18 8 -33 19 -33 24 0 5 11 2
25 -7 35 -23 31 -5 -16 64 -49 75 -83 155 -102 247 -8 39 -21 86 -29 105 -10
25 -13 68 -12 150 4 142 10 185 40 282 20 64 30 80 58 97 42 26 60 47 51 61
-4 7 -13 7 -27 -1 l-22 -12 22 34 c11 19 27 37 34 40 37 19 164 41 219 38 41
-1 77 4 99 13 58 26 80 30 80 18 0 -9 12 -10 38 -6 20 4 73 9 117 13 44 3 83
10 86 15 5 7 23 7 55 -1 45 -11 326 -68 384 -78 26 -5 27 -4 160 113 36 31 88
74 115 95 l50 37 137 9 c76 5 141 13 145 17 8 8 0 14 -71 54 -30 16 -57 22
-103 22 -37 0 -63 4 -63 10 0 17 27 23 67 13 35 -8 44 -5 113 37 86 52 130 70
180 75 75 7 164 52 154 79 -5 12 9 19 155 72 57 21 112 49 143 74 57 45 58 45
96 26 27 -14 49 -12 131 10 9 3 6 10 -10 24 l-24 20 42 -16 c40 -15 50 -15
170 5 70 12 162 22 203 24 73 2 76 1 125 -36 28 -21 54 -36 58 -35 5 2 15 -9
23 -24 8 -16 21 -28 29 -28 21 0 55 -32 48 -43 -3 -6 -1 -7 5 -3 7 4 12 1 12
-7 0 -7 7 -14 15 -14 11 0 12 4 3 14 -13 17 -4 28 14 16 7 -4 13 -28 14 -53 1
-36 9 -56 40 -97 l39 -52 22 21 c20 18 23 19 23 5 0 -9 -5 -16 -11 -14 -6 1
-14 -4 -17 -12 -2 -8 0 -11 6 -7 6 3 13 0 15 -6 9 -21 28 13 21 37 -4 16 -3
17 5 5 6 -8 8 -24 5 -35 -5 -19 -4 -19 7 -1 7 12 9 35 5 65 -4 25 -9 62 -12
81 -4 33 -32 130 -40 139 -2 2 -13 -4 -25 -15 -20 -18 -20 -18 -12 11 4 17 7
47 7 67 l-2 38 37 -6 c20 -3 37 -7 38 -7 1 -1 -7 -18 -16 -38 -18 -36 -18 -36
9 -72 l27 -37 19 35 c16 31 17 40 5 97 -30 147 -145 276 -282 319 -70 21 -62
12 -154 169 -6 10 -40 45 -75 79 l-65 60 -752 1 -751 0 -57 -62 c-31 -35 -79
-97 -106 -138 -59 -87 -68 -97 -45 -53 21 42 89 137 144 202 l44 51 -694 0
-695 0 -46 -82z m1251 -228 c12 0 10 -6 -9 -26 -24 -26 -66 -53 -57 -37 3 4
14 26 24 47 10 22 20 34 22 28 2 -7 11 -12 20 -12z m-1338 -120 c0 -5 -5 -10
-11 -10 -5 0 -7 5 -4 10 3 6 8 10 11 10 2 0 4 -4 4 -10z m2746 -20 c0 -8 4
-23 8 -33 11 -23 7 -26 -27 -20 -21 4 -26 10 -21 22 4 9 6 24 6 34 -1 12 5 17
16 15 9 -2 17 -10 18 -18z m-2759 -35 c-4 -8 -13 -15 -22 -15 -13 0 -12 3 3
18 19 21 27 20 19 -3z m2701 -33 c-1 -4 -11 -28 -22 -55 -10 -26 -24 -47 -30
-47 -24 0 -38 18 -31 39 3 12 10 19 14 16 5 -2 19 9 31 25 20 27 47 42 38 22z
m-348 -11 c0 -6 -5 -13 -11 -17 -8 -4 -5 -10 7 -18 17 -9 14 -11 -21 -17 -46
-8 -59 -2 -31 13 18 10 18 11 -5 29 l-24 19 43 0 c23 0 42 -4 42 -9z m1081
-74 c-1 -12 -15 -9 -19 4 -3 6 1 10 8 8 6 -3 11 -8 11 -12z m-1881 -227 c0 -5
-15 -10 -32 -9 -28 0 -30 2 -13 9 28 12 45 12 45 0z m-980 -20 c13 -8 13 -9 0
-13 -110 -33 -194 -83 -204 -120 -4 -19 -11 -24 -25 -20 -12 3 -17 11 -14 19
3 8 -4 30 -16 49 -24 41 -28 38 79 53 42 6 93 17 115 25 51 19 48 18 65 7z
m460 1 c0 -10 -105 -41 -140 -41 -38 0 -13 14 58 32 82 20 82 20 82 9z m-217
-21 c10 -10 -7 -11 -76 -7 -51 3 -94 10 -100 17 -10 10 7 11 76 7 51 -3 94
-10 100 -17z m413 -65 c-25 -19 -36 -19 -36 0 0 10 10 15 28 15 26 -1 26 -1 8
-15z m-1036 -1545 c0 -6 -9 -2 -20 7 -11 10 -20 19 -20 21 0 1 9 -2 20 -8 11
-6 20 -15 20 -20z m1014 -25 c19 -30 17 -30 -28 -8 -36 17 -39 33 -7 33 10 0
26 -11 35 -25z m-278 -68 c-30 -39 -32 -50 -11 -67 18 -15 11 -29 -13 -26 -12
2 -17 13 -19 42 -2 52 4 72 25 77 39 11 42 6 18 -26z m-35 -197 c4 -19 12 -36
18 -38 18 -6 13 -17 -21 -42 -29 -21 -32 -22 -44 -6 -13 19 -18 15 -28 -26 -7
-30 2 -36 22 -16 9 9 12 7 12 -10 0 -42 -50 -115 -67 -98 -3 3 -1 23 6 44 12
34 11 42 -8 73 -28 46 -27 56 13 63 39 8 71 39 62 62 -3 8 -3 20 0 25 11 18
28 3 35 -31z m303 -11 c-3 -5 -10 -7 -15 -3 -5 3 -7 10 -3 15 3 5 10 7 15 3 5
-3 7 -10 3 -15z m-983 -136 c8 2 10 2 6 -1 -5 -2 12 -26 38 -52 44 -45 46 -49
28 -59 -21 -10 -26 -7 -102 81 -24 27 -21 59 4 38 7 -6 19 -9 26 -7z m-162
-140 l-14 -38 -3 33 c-4 44 5 69 19 55 8 -8 7 -22 -2 -50z m763 -30 c9 -3 19
-12 22 -20 5 -12 0 -13 -27 -8 -42 9 -47 13 -47 32 0 10 5 13 18 8 9 -4 25 -9
34 -12z m-806 -143 c-14 -69 -22 -95 -24 -75 -6 49 29 198 43 183 1 -1 -7 -50
-19 -108z m822 -3 c5 -23 -10 -21 -26 4 -12 18 -11 20 5 17 10 -2 19 -11 21
-21z m636 -43 c23 -9 20 -23 -6 -33 -23 -9 -38 1 -38 27 0 13 19 16 44 6z
m-1487 -124 c-1 -22 -3 -40 -4 -40 -1 0 -7 9 -13 20 -8 14 -8 26 0 40 15 29
18 25 17 -20z m449 6 c3 -8 4 -29 2 -46 l-3 -33 -44 34 c-25 19 -46 40 -49 47
-6 18 87 17 94 -2z m-429 -18 c-3 -8 -6 -5 -6 6 -1 11 2 17 5 13 3 -3 4 -12 1
-19z m-49 -213 c-3 -3 -9 2 -12 12 -6 14 -5 15 5 6 7 -7 10 -15 7 -18z m2105
-26 c-7 -25 -10 -24 -15 5 -3 16 -1 23 7 19 7 -2 11 -13 8 -24z m-2253 -226
c0 -8 -11 -12 -25 -11 -27 3 -34 25 -13 46 9 9 14 7 24 -6 8 -9 14 -23 14 -29z
m2357 -145 c-3 -8 -6 -5 -6 6 -1 11 2 17 5 13 3 -3 4 -12 1 -19z m-2237 -3
c10 -13 11 -18 1 -28 -10 -9 -15 -8 -27 7 -8 11 -14 23 -14 28 0 14 27 9 40
-7z m2283 -49 c4 -10 0 -12 -14 -9 -22 6 -26 23 -5 23 8 0 16 -6 19 -14z m102
-148 l20 -20 -36 5 c-20 3 -41 1 -46 -4 -5 -5 -10 3 -11 21 -2 28 -1 30 25 24
16 -4 37 -15 48 -26z m85 -78 c0 -5 -11 -10 -24 -10 -13 0 -33 -3 -43 -6 -12
-5 -15 -4 -8 4 6 6 21 12 35 15 14 2 28 5 33 6 4 0 7 -3 7 -9z m408 -90 c-2
-14 -7 -17 -17 -10 -13 7 -13 13 -1 37 11 22 14 24 17 11 3 -10 3 -27 1 -38z
m-1365 23 c4 -4 -7 -13 -24 -20 -46 -19 -58 -16 -24 7 33 22 38 23 48 13z"/>
<path d="M3806 3445 c-25 -101 -22 -107 29 -53 32 33 43 52 38 65 -7 22 -33
53 -43 53 -4 0 -15 -29 -24 -65z"/>
<path d="M950 3059 c0 -21 46 -52 66 -45 9 4 18 -3 24 -19 19 -51 115 -86 183
-67 l35 10 -2 -67 c-1 -65 -1 -66 27 -69 33 -4 35 -19 3 -33 -23 -11 -37 -50
-28 -77 2 -7 21 -12 42 -12 54 0 58 -15 10 -42 -35 -20 -40 -27 -38 -53 2 -24
14 -38 62 -69 58 -39 58 -39 35 -52 -13 -7 -32 -13 -41 -14 -22 0 -23 -22 -2
-83 9 -26 22 -47 30 -47 20 0 56 22 72 43 7 9 19 17 26 17 8 0 25 16 40 35 18
23 38 36 61 41 34 6 35 7 29 45 -7 41 7 53 24 23 17 -30 25 4 30 115 4 113 16
158 44 167 11 3 18 15 18 30 0 21 5 24 34 24 99 0 79 60 -21 65 -23 0 -50 8
-60 17 -22 19 -99 41 -114 33 -5 -4 -16 -1 -24 5 -8 7 -15 9 -15 5 0 -4 -7 -2
-15 5 -8 6 -19 9 -25 5 -5 -3 -10 -2 -10 3 0 6 -44 18 -97 28 -54 10 -110 26
-124 36 -23 15 -46 18 -153 16 -111 -2 -126 -4 -126 -19z"/>
<path d="M615 2910 c-46 -72 -76 -157 -76 -214 0 -82 4 -91 41 -88 22 2 30 -2
28 -10 -3 -7 -19 -14 -36 -16 -18 -2 -32 -6 -32 -9 0 -3 8 -30 17 -61 l17 -57
8 43 c7 29 14 42 26 42 9 0 34 3 55 6 30 6 37 4 37 -10 0 -21 44 -108 65 -129
12 -12 22 -13 51 -5 20 5 38 7 41 4 3 -3 -8 -8 -23 -11 -55 -12 -56 -13 -42
-35 10 -15 10 -24 1 -39 -6 -10 -17 -37 -23 -61 l-11 -42 -26 23 c-57 52 -64
61 -59 75 3 8 19 22 36 32 16 9 30 19 30 22 0 3 -34 12 -75 21 -86 17 -87 16
-51 -56 l25 -48 -26 -49 c-28 -53 -42 -131 -25 -142 5 -3 13 9 16 29 4 19 11
35 15 35 5 0 48 -40 97 -90 48 -49 93 -90 100 -90 6 0 45 15 85 34 l74 34 26
68 c36 94 37 95 58 129 17 29 17 32 0 71 -12 30 -25 43 -45 48 -15 4 -39 16
-52 27 -14 10 -36 19 -51 19 l-26 0 32 21 33 21 -1 122 c0 68 2 148 6 179 l7
57 -28 1 c-76 3 -189 -33 -180 -57 11 -29 -16 -24 -48 9 -22 23 -33 44 -33 63
0 16 -7 52 -15 79 l-14 50 -29 -45z m186 -720 c14 -8 19 -21 19 -50 0 -21 -5
-42 -10 -45 -12 -7 -40 53 -40 85 0 23 4 24 31 10z"/>
<path d="M2714 2941 c-27 -5 -154 -88 -154 -101 0 -5 -19 -10 -42 -11 -42 -1
-42 -1 -13 -10 17 -5 53 -8 81 -7 28 0 56 -2 63 -6 6 -4 36 5 66 19 45 22 64
26 119 23 38 -2 68 1 71 7 2 6 12 0 21 -12 26 -35 60 -29 92 16 23 33 31 38
57 34 22 -4 35 1 49 15 18 20 17 21 -19 28 -21 4 -54 2 -75 -5 -29 -9 -55 -8
-116 4 -72 13 -150 16 -200 6z"/>
<path d="M3311 2854 c-29 -15 -55 -33 -58 -40 -3 -8 -10 -14 -17 -14 -6 0 -33
-22 -59 -48 -43 -44 -47 -51 -38 -75 12 -32 17 -33 56 -7 46 30 53 24 15 -15
-18 -19 -31 -38 -27 -41 12 -13 -22 -36 -39 -26 -22 12 -54 4 -54 -14 0 -9 11
-14 30 -14 17 0 30 -2 30 -5 0 -4 -9 -26 -53 -122 -5 -11 -27 -29 -48 -39 -46
-20 -54 -41 -46 -122 12 -117 23 -152 57 -187 28 -29 41 -35 75 -35 35 0 51 8
108 55 37 31 67 62 67 70 0 8 -12 17 -27 21 -50 11 -49 14 5 10 48 -3 55 -1
77 26 14 16 25 40 25 53 0 12 7 25 15 28 17 7 46 70 69 147 18 61 32 209 22
235 -6 15 -9 16 -29 3 -14 -10 -29 -12 -42 -7 -18 7 -17 8 6 8 14 1 34 10 43
20 24 26 13 91 -21 131 -32 38 -71 39 -142 4z m99 -201 c0 -10 -4 -24 -9 -31
-6 -10 -10 -8 -14 9 -3 12 -4 26 -1 31 9 14 24 9 24 -9z m-12 -145 c-10 -15
-16 -34 -12 -40 5 -10 4 -10 -5 -2 -10 9 -9 18 3 42 10 20 12 33 6 37 -6 4 -8
11 -4 16 3 6 11 3 19 -8 11 -15 10 -22 -7 -45z m-186 -108 c21 -6 39 -14 41
-18 8 -13 -24 -103 -33 -97 -6 4 -10 15 -10 25 0 10 -9 22 -20 25 -11 4 -37
22 -58 41 l-37 34 40 0 c22 0 57 -5 77 -10z m128 -109 c0 -6 -4 -13 -10 -16
-5 -3 -10 1 -10 9 0 9 5 16 10 16 6 0 10 -4 10 -9z m-115 -51 c3 -5 -1 -10
-10 -10 -9 0 -13 5 -10 10 3 6 8 10 10 10 2 0 7 -4 10 -10z m-118 -26 c-3 -3
-12 -4 -19 -1 -8 3 -5 6 6 6 11 1 17 -2 13 -5z"/>
<path d="M1873 2834 c10 -11 36 -24 60 -29 34 -9 43 -16 50 -40 6 -22 24 -39
64 -62 30 -18 63 -33 73 -33 11 0 34 -13 52 -29 63 -55 98 -62 98 -20 0 10 4
19 9 19 11 0 21 -25 21 -53 0 -16 3 -18 12 -9 9 9 17 5 34 -13 26 -29 39 -31
48 -10 3 8 0 15 -7 15 -7 0 -13 8 -14 18 -1 9 -4 29 -7 45 -2 15 0 27 4 27 5
0 7 9 5 20 -2 11 1 20 6 20 6 0 7 5 4 10 -3 6 -24 10 -45 10 -21 0 -40 4 -42
9 -1 6 -25 13 -53 17 -27 3 -69 17 -92 31 -28 16 -65 27 -105 31 -38 3 -67 11
-74 20 -6 8 -34 17 -65 19 -52 5 -53 5 -36 -13z m477 -171 c0 -20 -16 -23 -38
-7 -18 12 -20 19 -12 34 10 18 12 19 30 3 11 -10 20 -23 20 -30z"/>
<path d="M2690 2790 c-8 -5 -10 -10 -5 -10 6 0 17 5 25 10 8 5 11 10 5 10 -5
0 -17 -5 -25 -10z"/>
<path d="M2645 2780 c-7 -11 36 -24 62 -17 10 3 3 5 -15 6 -19 1 -31 5 -27 11
3 6 2 10 -4 10 -5 0 -13 -4 -16 -10z"/>
<path d="M2411 2664 c0 -11 3 -14 6 -6 3 7 2 16 -1 19 -3 4 -6 -2 -5 -13z"/>
<path d="M3864 2626 c-3 -9 -12 -16 -19 -16 -15 0 -93 -83 -123 -131 -12 -20
-28 -55 -36 -78 l-15 -41 41 -60 c23 -33 45 -60 49 -60 9 0 56 101 103 218 42
106 51 174 23 180 -9 2 -20 -4 -23 -12z"/>
<path d="M2410 2585 c0 -21 5 -35 13 -35 7 0 12 13 12 30 0 16 -6 32 -12 35
-9 3 -13 -7 -13 -30z"/>
<path d="M2305 2520 c-4 -7 0 -19 9 -28 11 -11 16 -12 16 -4 0 10 5 10 20 2
12 -7 20 -7 20 -1 0 5 -10 13 -22 17 -13 4 -26 11 -29 16 -4 6 -9 5 -14 -2z"/>
<path d="M2870 2488 c-30 -5 -80 -7 -110 -5 -30 2 -66 0 -80 -4 -24 -7 -24 -7
-2 -8 13 -1 36 -17 54 -37 18 -20 56 -49 85 -66 29 -16 55 -33 58 -38 2 -4 15
-5 28 -3 22 4 25 11 31 81 3 42 3 79 -1 82 -5 4 -33 3 -63 -2z"/>
<path d="M3016 2459 c-11 -59 -8 -65 19 -39 28 26 30 63 4 68 -11 2 -18 -7
-23 -29z"/>
<path d="M2870 2254 c0 -59 3 -69 41 -124 22 -33 45 -60 50 -60 9 0 3 42 -11
70 -4 8 -13 49 -19 90 -13 84 -11 79 -40 85 -20 4 -21 0 -21 -61z"/>
<path d="M1582 2134 c-22 -15 -22 -17 -7 -34 24 -26 82 -35 101 -15 9 9 15 17
13 19 -31 23 -69 46 -76 46 -5 0 -19 -7 -31 -16z"/>
<path d="M1669 1991 c-13 -10 -39 -26 -57 -35 -21 -11 -32 -23 -30 -34 6 -30
29 -19 76 36 47 55 50 64 11 33z"/>
<path d="M3576 1541 l6 -28 -74 5 c-83 5 -188 -19 -188 -44 0 -8 -4 -14 -10
-14 -5 0 -10 -4 -10 -9 0 -10 57 -26 80 -22 8 1 22 2 30 3 8 1 18 6 22 12 5 7
12 5 20 -7 13 -18 48 -15 48 4 0 5 14 9 30 9 17 0 30 -4 30 -9 0 -18 39 -19
55 -1 10 11 25 15 40 12 29 -5 34 12 8 27 -14 7 -15 13 -6 22 6 6 9 18 6 27
-4 10 -2 13 5 8 8 -5 10 -2 6 8 -7 18 -26 24 -71 24 -30 1 -32 -1 -27 -27z"/>
<path d="M2220 1529 c-39 -19 -43 -22 -25 -29 39 -16 83 -11 99 12 30 42 -3
50 -74 17z"/>
<path d="M3221 1431 c20 -31 44 -42 65 -27 16 12 15 14 -14 21 -17 3 -34 11
-37 16 -4 5 -10 9 -16 9 -5 0 -4 -8 2 -19z"/>
<path d="M3443 1371 c-18 -28 5 -42 36 -22 12 8 12 12 2 25 -17 21 -24 20 -38
-3z"/>
<path d="M2237 1328 c-3 -7 -13 -31 -22 -53 l-17 -40 20 19 c12 10 24 31 27
48 7 31 1 49 -8 26z"/>
<path d="M3310 1325 c-10 -12 -10 -18 -1 -29 10 -11 8 -16 -5 -24 -11 -6 -15
-17 -11 -31 4 -18 -2 -25 -36 -42 -23 -12 -52 -31 -64 -42 -13 -11 -23 -15
-23 -9 0 7 -9 12 -19 12 -17 0 -19 -4 -10 -32 11 -40 11 -38 -1 -38 -5 0 -10
11 -10 24 0 19 -10 28 -56 46 -34 14 -59 19 -65 13 -5 -5 5 -14 27 -22 l36
-13 -25 -24 c-22 -20 -28 -22 -51 -11 -14 7 -29 20 -32 30 -12 38 -38 53 -82
49 -25 -2 -42 1 -42 7 0 6 -9 11 -20 11 -13 0 -20 -7 -20 -19 0 -11 -4 -22 -9
-25 -5 -3 -7 -20 -5 -37 3 -27 2 -30 -11 -19 -8 6 -14 15 -13 18 2 19 -5 21
-29 8 -41 -21 -77 -62 -70 -80 5 -11 0 -16 -13 -16 -24 0 -46 -40 -55 -103 -6
-41 -11 -48 -26 -44 -10 3 -19 1 -21 -4 -2 -5 -17 -4 -35 3 -39 14 -75 -1 -92
-39 -29 -64 -7 -78 121 -74 27 1 38 6 43 21 6 19 8 18 31 -10 25 -29 26 -29
57 -14 18 9 51 32 75 52 35 28 42 39 38 58 -8 30 -7 30 62 -2 31 -15 86 -31
122 -36 36 -5 97 -16 135 -24 66 -14 135 -11 135 6 0 4 9 10 20 13 12 3 20 14
20 26 0 33 66 94 96 88 16 -3 24 0 24 9 0 17 17 19 22 3 2 -7 10 -10 18 -7 8
2 -7 15 -36 29 -41 20 -63 24 -139 24 -84 -1 -135 -13 -135 -34 0 -11 69 -31
87 -24 11 5 14 -3 11 -38 l-3 -44 -85 3 c-47 2 -98 5 -113 8 -45 9 -25 29 32
32 42 3 52 6 47 18 -3 9 -6 19 -6 23 0 15 -76 8 -128 -11 -47 -17 -58 -18 -79
-7 -17 9 -23 19 -19 34 2 11 -1 37 -8 57 -10 27 -10 38 -2 42 7 3 7 5 -1 5
-19 1 -16 51 2 51 8 0 15 5 15 10 0 6 5 10 11 10 6 0 9 -7 6 -14 -4 -10 -1
-13 9 -9 7 3 14 0 14 -5 0 -6 -9 -13 -19 -17 -31 -10 -33 -45 -5 -82 14 -18
28 -32 32 -31 4 1 15 -2 25 -7 21 -9 67 9 67 26 0 7 -11 8 -32 3 l-33 -7 26
34 c34 43 49 48 49 14 0 -26 1 -27 43 -20 23 4 46 11 51 15 5 5 15 6 22 3 8
-3 14 1 14 10 0 13 6 14 32 6 55 -15 120 -11 156 11 34 21 34 21 39 1 6 -24
19 -28 101 -35 70 -6 73 -2 47 61 -19 45 -19 46 5 38 24 -7 26 16 9 78 -9 32
-8 42 5 56 20 22 20 37 0 45 -8 3 -12 11 -9 17 9 13 -67 0 -76 -14 -4 -5 -11
-7 -17 -3 -17 11 -42 -5 -42 -27 0 -16 -3 -18 -12 -9 -7 7 -23 12 -37 13 -23
0 -21 3 14 18 l40 18 -34 6 c-48 10 -57 9 -71 -8z m227 -37 c-3 -8 -6 -5 -6 6
-1 11 2 17 5 13 3 -3 4 -12 1 -19z m-87 -46 c0 -16 -27 -45 -39 -41 -8 3 -7
11 4 27 16 22 35 30 35 14z m-270 -133 c0 -11 -4 -17 -10 -14 -5 3 -10 13 -10
21 0 8 5 14 10 14 6 0 10 -9 10 -21z m-202 -18 c3 -8 -1 -12 -9 -9 -7 2 -15
10 -17 17 -3 8 1 12 9 9 7 -2 15 -10 17 -17z m-219 -120 c28 -39 26 -64 -2
-26 l-22 30 -5 -35 c-4 -28 -9 -34 -25 -32 -30 6 -31 10 -7 32 12 12 22 30 22
40 0 28 15 25 39 -9z m491 5 c0 -11 -19 -15 -25 -6 -3 5 1 10 9 10 9 0 16 -2
16 -4z m-593 -52 c14 -4 15 -7 4 -14 -16 -9 -63 8 -55 21 2 4 11 6 19 4 8 -3
23 -7 32 -11z m486 -91 c-7 -2 -21 -2 -30 0 -10 3 -4 5 12 5 17 0 24 -2 18 -5z
m-473 -54 c0 -5 -7 -9 -15 -9 -15 0 -20 12 -9 23 8 8 24 -1 24 -14z"/>
<path d="M2540 1110 c0 -5 5 -10 10 -10 6 0 10 5 10 10 0 6 -4 10 -10 10 -5 0
-10 -4 -10 -10z"/>
<path d="M2580 749 c0 -9 11 -24 25 -33 22 -14 25 -15 25 -1 0 8 -5 15 -11 15
-7 0 -18 8 -25 18 -12 15 -13 15 -14 1z"/>
<path d="M3201 624 c-19 -9 -48 -26 -65 -39 -42 -32 -81 -41 -89 -21 -4 9 -13
16 -21 16 -26 0 -66 -23 -66 -37 0 -7 29 -42 65 -77 69 -67 98 -76 109 -32 3
12 13 30 23 41 10 11 27 34 37 50 10 17 29 42 43 56 15 16 21 32 17 42 -7 20
-9 20 -53 1z"/>
<path d="M2717 325 c-13 -18 -14 -25 -5 -25 8 0 21 -9 31 -20 22 -26 37 -25
37 3 0 23 -25 67 -38 67 -4 0 -15 -12 -25 -25z"/>
<path d="M2750 239 c0 -5 5 -7 10 -4 6 3 10 8 10 11 0 2 -4 4 -10 4 -5 0 -10
-5 -10 -11z"/>
</g>
</svg>
